<?xml version="1.0" encoding="utf-8"?>
<svg width="1000" height="920" viewBox="0 0 1000 920" xmlns="http://www.w3.org/2000/svg" font-family="Arial, sans-serif">
  <style>
    text { font-family: Arial, sans-serif; fill: #1a1a1a; }
    .label-sm { font-size: 12px; }
    .label-code { font-size: 10px; fill: #666; font-weight: 600; }
    .label-hint { font-size: 11px; fill: #888; }
    .actor-line { stroke: #1a1a1a; stroke-width: 1.2; fill: none; }
    .actor-circle { fill: none; stroke: #1a1a1a; stroke-width: 1.2; }
    .boundary { fill: none; stroke: #555; stroke-width: 1.2; }
    .uc { fill: #fff; stroke: #1a1a1a; stroke-width: 1; }
    .assoc { stroke: #1a1a1a; stroke-width: 0.8; fill: none; }
    .relation { stroke: #888; stroke-width: 0.8; fill: none; stroke-dasharray: 5 3; }
  </style>
  <defs>
    <marker id="arr" viewBox="0 0 10 10" refX="8" refY="5" markerWidth="6" markerHeight="6" orient="auto-start-reverse">
      <path d="M2 1L8 5L2 9" fill="none" stroke="#888" stroke-width="1.5" stroke-linecap="round" stroke-linejoin="round"/>
    </marker>
  </defs>

  <!-- Boundary do sistema -->
  <rect x="200" y="40" width="600" height="790" rx="12" class="boundary"/>
  <text x="500" y="30" text-anchor="middle" class="label-hint">Sistema GuiaCidadão</text>

  <!-- ===== ATORES ===== -->
  <!-- Visitante (topo esquerdo) -->
  <circle cx="90" cy="110" r="14" class="actor-circle"/>
  <line x1="90" y1="124" x2="90" y2="159" class="actor-line"/>
  <line x1="90" y1="134" x2="72" y2="149" class="actor-line"/>
  <line x1="90" y1="134" x2="108" y2="149" class="actor-line"/>
  <line x1="90" y1="159" x2="75" y2="179" class="actor-line"/>
  <line x1="90" y1="159" x2="105" y2="179" class="actor-line"/>
  <text x="90" y="194" text-anchor="middle" class="label-sm">Visitante</text>
  <text x="90" y="208" text-anchor="middle" class="label-hint">(sem conta)</text>

  <!-- Cidadão (meio esquerdo) -->
  <circle cx="90" cy="450" r="14" class="actor-circle"/>
  <line x1="90" y1="464" x2="90" y2="499" class="actor-line"/>
  <line x1="90" y1="474" x2="72" y2="489" class="actor-line"/>
  <line x1="90" y1="474" x2="108" y2="489" class="actor-line"/>
  <line x1="90" y1="499" x2="75" y2="519" class="actor-line"/>
  <line x1="90" y1="499" x2="105" y2="519" class="actor-line"/>
  <text x="90" y="534" text-anchor="middle" class="label-sm">Cidadão</text>

  <!-- Colaborador (topo direito) -->
  <circle cx="910" cy="720" r="14" class="actor-circle"/>
  <line x1="910" y1="734" x2="910" y2="769" class="actor-line"/>
  <line x1="910" y1="744" x2="892" y2="759" class="actor-line"/>
  <line x1="910" y1="744" x2="928" y2="759" class="actor-line"/>
  <line x1="910" y1="769" x2="895" y2="789" class="actor-line"/>
  <line x1="910" y1="769" x2="925" y2="789" class="actor-line"/>
  <text x="910" y="804" text-anchor="middle" class="label-sm">Colaborador</text>

  <!-- Administrador (baixo direito) -->
  <circle cx="910" cy="830" r="14" class="actor-circle"/>
  <line x1="910" y1="844" x2="910" y2="879" class="actor-line"/>
  <line x1="910" y1="854" x2="892" y2="869" class="actor-line"/>
  <line x1="910" y1="854" x2="928" y2="869" class="actor-line"/>
  <line x1="910" y1="879" x2="895" y2="899" class="actor-line"/>
  <line x1="910" y1="879" x2="925" y2="899" class="actor-line"/>
  <text x="910" y="914" text-anchor="middle" class="label-sm">Administrador</text>

  <!-- ===== CASOS DE USO (todos com código único) ===== -->
  <!-- CSU01 — topo, compartilhado por todos -->
  <ellipse cx="500" cy="80" rx="145" ry="22" class="uc"/>
  <text x="500" y="75" text-anchor="middle" class="label-code">CSU01</text>
  <text x="500" y="92" text-anchor="middle" class="label-sm">Gerenciar conta</text>

  <!-- CSU07 — público, visitante -->
  <ellipse cx="500" cy="140" rx="145" ry="22" class="uc"/>
  <text x="500" y="135" text-anchor="middle" class="label-code">CSU07</text>
  <text x="500" y="152" text-anchor="middle" class="label-sm">Realizar triagem rápida</text>

  <!-- CSU02 -->
  <ellipse cx="500" cy="210" rx="145" ry="22" class="uc"/>
  <text x="500" y="205" text-anchor="middle" class="label-code">CSU02</text>
  <text x="500" y="222" text-anchor="middle" class="label-sm">Cadastrar perfil familiar</text>

  <!-- CSU03 -->
  <ellipse cx="500" cy="270" rx="145" ry="22" class="uc"/>
  <text x="500" y="265" text-anchor="middle" class="label-code">CSU03</text>
  <text x="500" y="282" text-anchor="middle" class="label-sm">Verificar elegibilidade</text>

  <!-- CSU04 -->
  <ellipse cx="500" cy="330" rx="145" ry="22" class="uc"/>
  <text x="500" y="325" text-anchor="middle" class="label-code">CSU04</text>
  <text x="500" y="342" text-anchor="middle" class="label-sm">Simular cenários</text>

  <!-- CSU05 -->
  <ellipse cx="500" cy="390" rx="145" ry="22" class="uc"/>
  <text x="500" y="385" text-anchor="middle" class="label-code">CSU05</text>
  <text x="500" y="402" text-anchor="middle" class="label-sm">Consultar benefícios</text>

  <!-- CSU06 -->
  <ellipse cx="500" cy="450" rx="145" ry="22" class="uc"/>
  <text x="500" y="445" text-anchor="middle" class="label-code">CSU06</text>
  <text x="500" y="462" text-anchor="middle" class="label-sm">Gerenciar checklist</text>

  <!-- CSU08 -->
  <ellipse cx="500" cy="510" rx="145" ry="22" class="uc"/>
  <text x="500" y="505" text-anchor="middle" class="label-code">CSU08</text>
  <text x="500" y="522" text-anchor="middle" class="label-sm">Gerar e compartilhar documento</text>

  <!-- CSU09 -->
  <ellipse cx="500" cy="570" rx="145" ry="22" class="uc"/>
  <text x="500" y="565" text-anchor="middle" class="label-code">CSU09</text>
  <text x="500" y="582" text-anchor="middle" class="label-sm">Localizar unidade de atendimento</text>

  <!-- CSU10 -->
  <ellipse cx="500" cy="630" rx="145" ry="22" class="uc"/>
  <text x="500" y="625" text-anchor="middle" class="label-code">CSU10</text>
  <text x="500" y="642" text-anchor="middle" class="label-sm">Registrar resultado presencial</text>

  <!-- CSU11 -->
  <ellipse cx="500" cy="700" rx="145" ry="22" class="uc"/>
  <text x="500" y="695" text-anchor="middle" class="label-code">CSU11</text>
  <text x="500" y="712" text-anchor="middle" class="label-sm">Gerenciar catálogo de benefícios</text>

  <!-- CSU12 -->
  <ellipse cx="500" cy="760" rx="145" ry="22" class="uc"/>
  <text x="500" y="755" text-anchor="middle" class="label-code">CSU12</text>
  <text x="500" y="772" text-anchor="middle" class="label-sm">Gerenciar unidades de atendimento</text>

  <!-- CSU13 -->
  <ellipse cx="500" cy="810" rx="145" ry="22" class="uc"/>
  <text x="500" y="805" text-anchor="middle" class="label-code">CSU13</text>
  <text x="500" y="822" text-anchor="middle" class="label-sm">Gerenciar contas de colaborador</text>

  <!-- ===== ASSOCIAÇÕES ===== -->
  <!-- Visitante → CSU01, CSU07 -->
  <line x1="104" y1="108" x2="355" y2="80" class="assoc"/>
  <line x1="104" y1="115" x2="355" y2="140" class="assoc"/>

  <!-- Cidadão → CSU01 e CSU02..CSU10 -->
  <line x1="104" y1="440" x2="355" y2="80" class="assoc"/>
  <line x1="104" y1="443" x2="355" y2="210" class="assoc"/>
  <line x1="104" y1="446" x2="355" y2="270" class="assoc"/>
  <line x1="104" y1="449" x2="355" y2="330" class="assoc"/>
  <line x1="104" y1="452" x2="355" y2="390" class="assoc"/>
  <line x1="104" y1="455" x2="355" y2="450" class="assoc"/>
  <line x1="104" y1="458" x2="355" y2="510" class="assoc"/>
  <line x1="104" y1="461" x2="355" y2="570" class="assoc"/>
  <line x1="104" y1="464" x2="355" y2="630" class="assoc"/>

  <!-- Colaborador → CSU01, CSU11, CSU12 -->
  <line x1="896" y1="715" x2="645" y2="80" class="assoc"/>
  <line x1="896" y1="720" x2="645" y2="700" class="assoc"/>
  <line x1="896" y1="725" x2="645" y2="760" class="assoc"/>

  <!-- Administrador → CSU01, CSU13 -->
  <line x1="896" y1="825" x2="645" y2="80" class="assoc"/>
  <line x1="896" y1="828" x2="645" y2="810" class="assoc"/>

  <!-- ===== RELAÇÕES «include» / «extend» ===== -->
  <!-- CSU04 «extend» CSU03 (Simular estende Verificar) -->
  <path d="M648 330 L680 330 L680 270 L648 270" class="relation" marker-end="url(#arr)"/>
  <text x="685" y="303" class="label-hint">«extend»</text>

  <!-- CSU09 «extend» CSU08 (Localizar unidade é condicional dentro de Gerar documento) -->
  <path d="M648 570 L680 570 L680 510 L648 510" class="relation" marker-end="url(#arr)"/>
  <text x="685" y="543" class="label-hint">«extend»</text>
</svg>
